<svg xmlns="http://www.w3.org/2000/svg" width="1600" height="1000" viewBox="0 0 1600 1000" role="img" aria-labelledby="title desc">
  <title id="title">Mind Space structured task view layout and wireframe</title>
  <desc id="desc">A high-fidelity layout reference for the structured task view, showing a narrow translucent sidebar, focused task list, and contextual editing inspector.</desc>
  <defs>
    <linearGradient id="bg" x1="0" y1="0" x2="1" y2="1"><stop stop-color="#0c101a"/><stop offset="1" stop-color="#070910"/></linearGradient>
    <linearGradient id="side" x1="0" y1="0" x2="1" y2="0"><stop stop-color="#151b28" stop-opacity=".96"/><stop offset="1" stop-color="#111621" stop-opacity=".86"/></linearGradient>
    <linearGradient id="inspect" x1="0" y1="0" x2="1" y2="1"><stop stop-color="#171d29"/><stop offset="1" stop-color="#10141e"/></linearGradient>
    <filter id="shadow" x="-30%" y="-30%" width="160%" height="160%"><feGaussianBlur in="SourceAlpha" stdDeviation="16"/><feOffset dy="10"/><feColorMatrix values="0 0 0 0 0 0 0 0 0 0 0 0 0 0 0 0 0 .34 0"/><feMerge><feMergeNode/><feMergeNode in="SourceGraphic"/></feMerge></filter>
    <style>
      .label{font-family:"Avenir Next","SF Pro Display",sans-serif;fill:#f3eee5}.body{font-family:"Avenir Next","SF Pro Text",sans-serif;fill:#9ca5b6}.meta{font-family:"SFMono-Regular",Menlo,monospace;fill:#778297;font-size:11px;letter-spacing:1.3px}.rule{stroke:#252c3a;stroke-width:1}.call{fill:#0b0f18;stroke:#30384a}.callTitle{font-family:"Avenir Next",sans-serif;fill:#eae5dc;font-size:14px;font-weight:650}.callText{font-family:"Avenir Next",sans-serif;fill:#939dad;font-size:12px}.num{fill:#c45d32}.numtext{font-family:Menlo,monospace;fill:#fff;font-size:12px;font-weight:bold;text-anchor:middle;dominant-baseline:middle}
    </style>
  </defs>
  <rect width="1600" height="1000" fill="#080b12"/>
  <text x="64" y="66" class="meta">REFERENCE 02 / STRUCTURED TASK VIEW</text>
  <text x="64" y="110" class="label" font-size="36" font-weight="600" letter-spacing="-1.2">Order without turning into a dashboard</text>
  <text x="64" y="140" class="body" font-size="15">Operate second: one list, one current context, one optional editing surface.</text>

  <!-- app frame -->
  <g filter="url(#shadow)">
    <rect x="64" y="188" width="1472" height="736" rx="26" fill="url(#bg)" stroke="#32394a"/>
    <rect x="64" y="188" width="1472" height="42" rx="26" fill="#141923"/>
    <path d="M64 214v-1c0-14 11-25 25-25h1422c14 0 25 11 25 25v17H64z" fill="#141923"/>
    <circle cx="92" cy="209" r="5" fill="#a65034"/><circle cx="111" cy="209" r="5" fill="#9b7842"/><circle cx="130" cy="209" r="5" fill="#52745f"/>
    <text x="800" y="214" class="meta" font-size="9" text-anchor="middle">MIND SPACE / TODAY</text>
  </g>

  <!-- sidebar -->
  <path d="M64 230h226v694H90c-14 0-26-12-26-26z" fill="url(#side)" stroke="#252d3c"/>
  <text x="92" y="274" class="meta" font-size="9">MIND SPACE</text>
  <text x="92" y="304" class="label" font-size="22" font-weight="600">Keep it small.</text>
  <g transform="translate(82 340)">
    <rect width="190" height="44" rx="12" fill="#c45d32" fill-opacity=".16" stroke="#c45d32" stroke-opacity=".48"/>
    <circle cx="21" cy="22" r="7" fill="none" stroke="#df8156" stroke-width="1.5"/><path d="M18 22l2 2 4-5" fill="none" stroke="#df8156" stroke-width="1.5" stroke-linecap="round"/>
    <text x="42" y="27" class="label" font-size="14" font-weight="620">Today</text><text x="166" y="27" class="meta" font-size="10">3</text>
  </g>
  <g transform="translate(82 394)"><rect width="190" height="42" rx="11" fill="transparent"/><path d="M15 14h13v13H15z" fill="none" stroke="#79859b"/><text x="42" y="26" class="body" font-size="14">Inbox</text><text x="166" y="26" class="meta" font-size="10">6</text></g>
  <text x="92" y="473" class="meta" font-size="9">PROJECTS</text>
  <g transform="translate(82 493)"><circle cx="20" cy="20" r="5" fill="#6f87b6"/><text x="42" y="25" class="body" font-size="14">Coursework</text><text x="166" y="25" class="meta" font-size="10">4</text></g>
  <g transform="translate(82 535)"><circle cx="20" cy="20" r="5" fill="#8378aa"/><text x="42" y="25" class="body" font-size="14">Thesis</text><text x="166" y="25" class="meta" font-size="10">8</text></g>
  <g transform="translate(82 577)"><circle cx="20" cy="20" r="5" fill="#668e79"/><text x="42" y="25" class="body" font-size="14">Personal</text><text x="166" y="25" class="meta" font-size="10">2</text></g>
  <line x1="92" y1="636" x2="262" y2="636" class="rule"/>
  <g transform="translate(82 650)"><path d="M15 15h12v12H15z" fill="none" stroke="#697488"/><text x="42" y="26" class="body" font-size="14">Done</text></g>
  <g transform="translate(82 692)"><path d="M15 14h13v14H15zM18 11v6M25 11v6" fill="none" stroke="#697488"/><text x="42" y="26" class="body" font-size="14">Logbook</text></g>
  <g transform="translate(82 824)"><circle cx="21" cy="21" r="8" fill="none" stroke="#697488"/><circle cx="21" cy="21" r="2" fill="#697488"/><text x="42" y="26" class="body" font-size="14">Settings</text></g>
  <circle cx="104" cy="888" r="5" fill="#668e79"/><text x="119" y="892" class="meta" font-size="9">VAULT SYNCED</text>

  <!-- primary list canvas -->
  <g transform="translate(344 274)">
    <text class="meta" font-size="10">TODAY / FOCUSED LIST</text>
    <text y="50" class="label" font-size="38" font-weight="620" letter-spacing="-1.4">Today</text>
    <text y="80" class="body" font-size="15">Three deliberate things. The rest can wait.</text>
    <rect x="650" y="12" width="54" height="42" rx="13" fill="#1a202d" stroke="#30384a"/>
    <path d="M672 33h10M677 28v10" stroke="#d9d4cb" stroke-width="1.5" stroke-linecap="round"/>

    <line x1="0" y1="118" x2="704" y2="118" class="rule"/>
    <g transform="translate(0 144)">
      <circle cx="15" cy="27" r="10" fill="none" stroke="#c45d32" stroke-width="1.5"/>
      <text x="46" y="24" class="label" font-size="17" font-weight="560">Fix references in essay</text>
      <text x="46" y="48" class="meta" font-size="9">WRITING · 25 MIN</text>
      <rect x="603" y="12" width="78" height="30" rx="15" fill="#c45d32" fill-opacity=".13"/><text x="642" y="32" class="meta" font-size="9" text-anchor="middle" fill="#de845c">EDITING</text>
    </g>
    <line x1="0" y1="218" x2="704" y2="218" class="rule"/>
    <g transform="translate(0 238)">
      <circle cx="15" cy="27" r="10" fill="none" stroke="#59647a" stroke-width="1.5"/>
      <text x="46" y="24" class="label" font-size="17" font-weight="560">Outline studio critique</text>
      <text x="46" y="48" class="meta" font-size="9">COURSEWORK · 40 MIN</text>
      <circle cx="656" cy="27" r="4" fill="#7089b8"/>
    </g>
    <line x1="0" y1="312" x2="704" y2="312" class="rule"/>
    <g transform="translate(0 332)">
      <circle cx="15" cy="27" r="10" fill="none" stroke="#59647a" stroke-width="1.5"/>
      <text x="46" y="24" class="label" font-size="17" font-weight="560">Book train home</text>
      <text x="46" y="48" class="meta" font-size="9">PERSONAL · 5 MIN</text>
      <circle cx="656" cy="27" r="4" fill="#668e79"/>
    </g>
    <line x1="0" y1="406" x2="704" y2="406" class="rule"/>

    <g transform="translate(0 460)">
      <text class="meta" font-size="9">LATER / NOT COMMITTED</text>
      <g transform="translate(0 28)"><text y="23" class="body" font-size="15">Read archive notes</text><text x="704" y="23" class="meta" font-size="9" text-anchor="end">INBOX</text></g>
      <g transform="translate(0 70)"><text y="23" class="body" font-size="15">Email project tutor</text><text x="704" y="23" class="meta" font-size="9" text-anchor="end">COURSEWORK</text></g>
    </g>
  </g>

  <!-- conditional inspector -->
  <g transform="translate(1100 250)">
    <rect width="408" height="646" rx="22" fill="url(#inspect)" stroke="#343c4e"/>
    <text x="28" y="38" class="meta" font-size="9">EDIT TASK</text>
    <circle cx="376" cy="34" r="13" fill="#202735"/><path d="M371 29l10 10M381 29l-10 10" stroke="#8d97a9"/>
    <text x="28" y="89" class="label" font-size="24" font-weight="580">Fix references in essay</text>
    <line x1="28" y1="116" x2="380" y2="116" class="rule"/>
    <text x="28" y="151" class="meta" font-size="9">NOTES</text>
    <rect x="28" y="168" width="352" height="112" rx="14" fill="#0d111a" stroke="#2b3343"/>
    <text x="44" y="196" class="body" font-size="13">Check the bibliography against the</text><text x="44" y="218" class="body" font-size="13">department style guide before export.</text>
    <text x="28" y="320" class="meta" font-size="9">PROJECT</text>
    <rect x="28" y="336" width="352" height="46" rx="12" fill="#111722" stroke="#2b3343"/>
    <circle cx="50" cy="359" r="5" fill="#8378aa"/><text x="66" y="364" class="label" font-size="13">Writing</text><path d="M352 354l6 6 6-6" fill="none" stroke="#7d8798"/>
    <text x="28" y="420" class="meta" font-size="9">ESTIMATED FOCUS</text>
    <rect x="28" y="436" width="168" height="46" rx="12" fill="#111722" stroke="#2b3343"/><text x="46" y="465" class="label" font-size="13">25 minutes</text>
    <g transform="translate(28 518)"><rect width="170" height="44" rx="13" fill="#c45d32"/><text x="85" y="27" class="label" font-size="13" font-weight="650" text-anchor="middle">Save changes</text></g>
    <g transform="translate(210 518)"><rect width="170" height="44" rx="13" fill="#171d29" stroke="#31394a"/><text x="85" y="27" class="body" font-size="13" text-anchor="middle">Cancel</text></g>
    <text x="28" y="606" class="meta" font-size="9">TASK_F93C · STORED LOCALLY</text>
  </g>

  <!-- annotations -->
  <g transform="translate(90 946)"><circle cx="0" cy="0" r="14" class="num"/><text class="numtext">1</text><text x="24" y="-4" class="callTitle">Navigation stays narrow</text><text x="24" y="14" class="callText">It locates work; it does not compete with it.</text></g>
  <g transform="translate(495 946)"><circle cx="0" cy="0" r="14" class="num"/><text class="numtext">2</text><text x="24" y="-4" class="callTitle">The list is the product</text><text x="24" y="14" class="callText">No charts, counters, or productivity theatre.</text></g>
  <g transform="translate(910 946)"><circle cx="0" cy="0" r="14" class="num"/><text class="numtext">3</text><text x="24" y="-4" class="callTitle">Inspector is conditional</text><text x="24" y="14" class="callText">It slides in only for add/edit, then gives space back.</text></g>
  <g transform="translate(1330 946)"><circle cx="0" cy="0" r="14" class="num"/><text class="numtext">4</text><text x="24" y="-4" class="callTitle">Orange means action</text><text x="24" y="14" class="callText">Selection and commit, not decoration.</text></g>
</svg>
